<?xml version="1.0" encoding="utf-8"?>
<!-- Generator: Adobe Illustrator 18.0.0, SVG Export Plug-In . SVG Version: 6.00 Build 0)  -->
<!DOCTYPE svg PUBLIC "-//W3C//DTD SVG 1.1//EN" "http://www.w3.org/Graphics/SVG/1.1/DTD/svg11.dtd">
<svg version="1.1" id="Layer_1" xmlns:sketch="http://www.bohemiancoding.com/sketch/ns"
	 xmlns="http://www.w3.org/2000/svg" xmlns:xlink="http://www.w3.org/1999/xlink" x="0px" y="0px" viewBox="0 0 65 52"
	 enable-background="new 0 0 65 52" xml:space="preserve">
<title>Unibz Logo Copy 10</title>
<desc>Created with Sketch.</desc>
<g id="Artboard-13" transform="translate(-50.000000, -32.000000)" sketch:type="MSArtboardGroup">
	<g id="Unibz-Logo-Copy-10" transform="translate(50.000000, 32.000000)" sketch:type="MSLayerGroup">
		<path id="Fill-1" sketch:type="MSShapeGroup" fill="#FFFFFF" d="M38.9,0.2h25.7v3.6H38.9V0.2z"/>
		<path id="Fill-2" sketch:type="MSShapeGroup" fill="#FFFFFF" d="M12.6,34.5H9v-1.3c-1,1-2.2,1.5-3.6,1.5c-1.4,0-2.6-0.4-3.5-1.3
			c-1-1-1.5-2.4-1.5-4.1V20h3.7v8.8c0,0.9,0.3,1.6,0.8,2.1c0.4,0.4,1,0.6,1.6,0.6c0.7,0,1.2-0.2,1.6-0.6c0.5-0.5,0.8-1.1,0.8-2.1V20
			h3.7V34.5"/>
		<path id="Fill-3" sketch:type="MSShapeGroup" fill="#FFFFFF" d="M28.2,34.5h-3.7v-8.8c0-0.9-0.3-1.6-0.8-2.1
			c-0.4-0.4-1-0.6-1.6-0.6c-0.7,0-1.2,0.2-1.6,0.6c-0.5,0.5-0.8,1.2-0.8,2.1v8.8H16V20h3.6v1.3c1-1,2.2-1.5,3.7-1.5
			c1.4,0,2.6,0.4,3.5,1.3c1,1,1.5,2.4,1.5,4.1V34.5"/>
		<path id="Fill-4" sketch:type="MSShapeGroup" fill="#FFFFFF" d="M31.7,14.6h3.7v2.9h-3.7V14.6z M31.7,20h3.7v14.5h-3.7V20z"/>
		<path id="Fill-5" sketch:type="MSShapeGroup" fill="#FFFFFF" d="M51.2,27.2c0,1.5-0.1,2.6-0.2,3.3c-0.2,1.2-0.6,2.1-1.3,2.8
			c-0.9,0.9-2.1,1.3-3.6,1.3c-1.5,0-2.7-0.5-3.6-1.5v1.4h-3.5V14.7h3.7v6.6c0.9-1,2-1.4,3.5-1.4c1.5,0,2.7,0.4,3.5,1.3
			c0.7,0.6,1.1,1.6,1.3,2.8C51.1,24.7,51.2,25.8,51.2,27.2 M47.5,27.2c0-1.3-0.1-2.2-0.3-2.8c-0.4-0.9-1.1-1.4-2.1-1.4
			c-1.1,0-1.8,0.5-2.1,1.4c-0.2,0.6-0.3,1.5-0.3,2.8c0,1.3,0.1,2.2,0.3,2.8c0.4,0.9,1.1,1.4,2.1,1.4c1.1,0,1.8-0.5,2.1-1.4
			C47.4,29.4,47.5,28.5,47.5,27.2"/>
		<path id="Fill-6" sketch:type="MSShapeGroup" fill="#FFFFFF" d="M64.6,34.5H53.5v-2.7l6.5-8.5h-6.1V20h10.8v2.8L58,31.3h6.6V34.5"
			/>
		<path id="Fill-7" sketch:type="MSShapeGroup" fill="#FFFFFF" d="M38.9,47.4h25.7V51H38.9V47.4z"/>
	</g>
</g>
</svg>
